<?xml version="1.0" encoding="UTF-8" standalone="no"?>
<svg xmlns:svg="http://www.w3.org/2000/svg" xmlns="http://www.w3.org/2000/svg" viewBox="0 0 50 50" >
<def>
<title>gold</title>
</def>
<ellipse style="fill:#ffffff" cx="24.64" cy="25.13" rx="23.3" ry="23.67" />
<path style="fill:#f7eb95" d="M 20.2,48.6 C 5.568,46.23 -3.616,28.52 2.89,15.17 8.651,1.897 27.32,-3.638 38.88,5.544 c 6.57,4.806 10.7,13.036 10,21.216 -0.7,3.86 -0.41,3.49 -1.88,7.92 -4.38,9.99 -16.06,16.3 -26.8,13.92 z M 37.75,31.99 c 2.19,-4.63 -1.09,-1.1 -0.87,1 z m 1.41,-6.91 c -1.18,2.35 0.94,3.92 0,0 z m -17,1.16 c 4.86,-0.4 -0.1,-8.88 0.19,-1.98 0,0.44 -1.45,4.32 -0.19,1.98 z m -2.39,0.45 C 18.83,25.32 15.48,25 18.5,26.3 Z m -6.57,-1.8 c 1.77,-4.04 -3.06,-0.11 0,0 z m -0.87,-0.97 c 0.23,-1.12 1.1,0.92 0,0 z m 0.1,-2.35 c -2.12,-0.31 1.55,1.46 0,0 z m -1.72,-0.1 c -1.517,-0.58 0.99,1.78 0,0 z m 34.02,-7.91 c -0.1,-3.02 -1.65,0.54 0,0 z"/>
<path style="fill:#dfbd4d" d="M 20.39,48.57 C 8.376,46.59 -0.9047,34.02 1.242,21.93 2.217,16.57 5.032,11.64 8.541,7.536 17.31,-1.025 33.03,-1.041 41.54,7.908 c 2.73,2.682 4.83,6.022 6,9.672 C 44.7,14.24 43.46,9.482 39.42,7.237 35.82,4.57 31.36,3.403 26.99,2.801 c -2.69,1.329 1.02,3.042 2.44,3.228 2.07,1.23 0.46,2.717 -1.37,2.104 -2.66,0.365 -1.09,2.927 0.89,2.917 3.14,0.8 5.82,2.65 8.88,3.62 1.88,1.03 5.13,0.8 6.1,2.61 -1.09,0.14 -3.72,-1.64 -3.32,0.9 -0.95,2.5 -4.99,3 -5.59,5.99 -1.22,-0.86 -3.08,0.66 -1.98,1.58 -1.97,1.29 -5.37,0.73 -5.7,-1.99 -0.76,-5.91 -1.46,-11.84 -2.13,-17.773 -0.37,4.433 0.11,8.893 1.06,13.223 -2.09,2.85 -0.11,6.49 -1.2,9.6 -0.78,2.4 2.61,1.14 1.79,3.34 -0.86,1.34 -0.26,3.24 1.37,1.66 2.5,-2.11 4.31,-4.91 6.91,-6.91 2.91,-2.83 5.74,-5.73 8.69,-8.52 0.62,2.69 -3.56,3.33 -4.02,5.69 -2.44,1.43 -1.49,4.53 -2.49,6.71 -0.16,1.73 -2.97,3.73 -2.44,4.81 0.99,-0.7 2.41,-2.26 2.7,-0.77 1.29,-0.9 5.13,-1.94 3.6,0.89 -0.37,2.25 1.69,0.1 1.79,-0.94 0.91,-1.45 1.62,-0.69 0.5,0.44 -0.18,2.73 2.27,-0.57 2.2,-1.79 0.34,-1.28 1.29,-4.59 1.99,-4.26 -0.56,9.35 -8.33,17.18 -17.28,19.15 -3.26,0.78 -6.7,0.91 -9.99,0.26 z m 20.88,-8.5 c 0.42,-1.12 -0.86,1.08 0,0 z M 24.59,38.95 c -1.14,-1.04 0.62,1.2 0,0 z m 1.48,-0.1 c -0.88,-1.39 -0.83,1.44 0,0 z m -8,-1.2 c -2.91,-1.69 -4.63,-4.69 -6.57,-7.32 1.14,3.22 3.3,6.45 6.7,7.53 l -0.1,-0.11 -0.1,-0.1 z m 14.34,-0.1 c 1.84,-0.86 -0.23,-0.75 -0.54,0 l 0.19,0 0.35,-0 z m -5.89,-4.88 c -0.65,-1.77 -0.69,1.73 0,0 z m -15.79,-1.6 c -0.62,-0.83 -0.21,0.91 0,0 z M 5.651,28.6 c -1.379,-2.67 0.317,-5.55 0.24,-8.32 -3.056,1.03 -0.909,5.07 -1.459,7.39 0.11,0.8 0.968,3.37 1.219,0.93 z m 4.419,0.64 c 0.1,-3.06 -1.839,0.98 0,0 z m 27.57,0.13 c -0.91,-0.48 0.11,1.13 0,0 z m -2.24,-0.5 c 0.24,-0.99 -0.69,1.06 0,0 z m -16,-0.14 c 2.47,-0 5.82,-0.98 5.33,-4.15 -0.15,-1.94 0.56,-5.44 -1.25,-6.31 -1.88,1.78 -0.11,5.05 -1.62,7.11 -1.79,2.37 -4.13,0.1 -5.57,-1.38 -1.8,-1.41 -3.87,-2.45 -5.61,-3.95 -0.29,-1.74 -4.6,-4.01 -4.033,-1.17 2.14,2.4 4.633,4.48 6.833,6.82 1.92,0.79 3.97,3.3 5.92,3.03 z m 1.07,-0.8 c 0.55,-1.29 1.17,1.03 0,0 z m 1.74,-0.5 c 1.28,-1.69 1.81,1.01 0,0 z m -6.78,-0.64 c -0.46,-1.33 0.86,1.42 0,0 z M 6.867,18.5 c 0.612,-1.18 1.044,0.94 0,0 z m 16.413,9.75 c -1.22,-0.1 -0.53,1.49 0,0 z M 3.538,25.2 C 3.034,18.78 6.589,12.85 10.86,8.345 7.972,9.616 6.538,12.7 5.006,15.26 3.027,19.29 2.242,23.99 3.241,28.4 3.836,27.42 3.38,26.26 3.538,25.2 Z m 5.755,1.72 C 11.26,25.98 8.169,21.65 8.33,24.95 c 0.02,0.3 0.644,3.84 0.963,1.97 z m 27.657,-0.2 c -1.06,0.14 0.1,1.26 0,0 z m -26.2,-1.39 c -1.456,1.08 1.37,1.39 0,0 z m 8.07,-3.23 c -0.39,-3.53 -4.78,0.42 -1.77,1.62 1.22,1.14 2.46,-0.41 1.77,-1.62 z m 13.25,1.03 c -0.78,-1.69 -1.57,0.93 0,0 z m -16.54,-2.8 c -1.14,0.28 -0.2,1.94 0,0 z m 22.16,-0.81 c 3.02,1.06 0.27,-5.07 0.1,-1.97 0,2.03 -1.7,0.34 -1.77,-0.63 -1.71,-1.33 -2.88,2.36 -0.79,2.48 -0.28,2.83 1.54,0.87 2.46,0.12 z m -1.97,0.64 c 0.38,-1.96 1.79,0.59 0,0 z m -0.8,-1.88 c -0.1,-1.44 0.76,0.24 0,0 z m -22.84,0.83 c 0.4,-1.36 -0.87,1.04 0,0 z m -0.8,-1.33 c -0.93,-1.63 -1.05,1.65 0,0 z m 1.67,-0.28 c 0.85,-0.45 -0.1,-0.91 0,0 z M 24.2,16.6 c -0.46,-2.2 -0.74,1.65 0,0 z m 9.15,-0.35 c -1.83,-1.77 -0.82,1.55 0,0 z M 8.469,14.59 C 9.043,12.67 12.71,11.01 11.79,9.318 9.446,10.82 7.292,13.09 6.949,15.97 c 0.776,0 1.169,-0.82 1.52,-1.38 z m -1.314,0.66 c 0.303,-0.79 -0.05,1.29 0,0 z m 2.378,-3.32 c 0.171,-0.97 0.477,0.43 0,0 z M 10.24,11 c 0.49,-1.514 0.85,0.75 0,0 z m 23.96,5.2 c 0.92,-1.39 -1.97,-0.26 -0.1,0.3 l 0.1,-0.1 0,-0.22 z m -1.52,-1.42 c 1.8,-1.99 -4.13,-2.31 -2,-0.61 1.02,-0.68 1.03,1.63 2,0.61 z m -8.34,-0.61 c 0.21,-2.39 -0.97,-0.19 -0.31,0.58 l 0.13,-0.2 0.18,-0.38 z M 13.6,13.93 c 2.24,-1.32 -1.34,-1.27 -1.16,0.3 0.42,0.1 0.79,-0.16 1.16,-0.3 z m 1.96,-0.1 c -1,0.23 0.71,0.69 0,0 z m 12.91,-1.14 c -0.33,-1.76 -1.48,0.87 0,0 z M 23.05,9.749 c -0.73,0.441 0.86,0.401 0,0 z m 14.8,23.441 c -1.16,-2.59 1.68,-0 0,0 z m 2.88,-3.12 c -0,-0.96 0.68,1.07 0,0 z M 39.08,28.6 c 0.17,-1.48 0.4,1.1 0,0 z m -12.92,0.21 c -1.38,-1.01 0.81,-1.26 0,0 z m 5.11,-0.1 c 0.62,-1.23 0.18,1.12 0,0 z M 26.33,27.4 c -0.34,-0.89 0.67,-0.1 0,0 z m 8.46,-1.02 c 0.16,-2.21 2.18,-0.66 0,0 z M 25.53,24.4 c 0.87,-1.22 0.79,1.33 0,0 z M 47.59,20 c -0.85,-0.77 0.63,-0.33 0,0 z m -0.46,-1.4 c 0.55,-1.3 0.84,0.92 0,0 z M 33.72,12.02 c -1.72,-0.64 0.53,-0.83 0.53,-0.1 l -0.19,0.1 -0.34,0 z M 30.07,9 c 0.38,-1.128 0.4,0.8 0,0 z M 33.8,6.469 C 32.37,4.067 27.89,5.823 26.98,3.676 c 2.01,0.164 4.18,0.552 5.98,1.49 1.15,0.297 0.65,1.75 0.84,1.303 z"/>
<path style="fill:#966014" d="M 21.22,48.73 C 8.667,47.18 -1.07,33.81 1.665,21.38 3.484,11.3 11.96,2.366 22.33,1.229 31.23,0.3359 40.76,4.849 44.99,12.88 38.86,2.881 24.53,-0.1627 14.43,5.374 8.651,8.419 4.101,13.97 3.024,20.5 1.582,28.11 4.065,36.72 10.24,41.62 9.604,40.45 7.795,38.86 7.016,37.32 3.899,32.39 2.274,26.07 4.315,20.43 3.847,26.27 4.314,32.85 8.496,37.36 8.892,36.63 7.044,33.71 6.726,32.19 5.673,29.26 4.995,25.99 5.981,22.95 4.302,18.51 5.733,13.1 9.564,10.23 13.41,6.37 18.66,3.132 24.32,3.749 c 3.2,0.868 2.53,4.875 2.19,7.381 -0.32,3.41 3.6,4.3 5.39,6.41 1.44,1.92 5.08,4.56 6.72,1.46 0.76,-2.47 -2.71,-2.96 -4.12,-4.24 -2.08,-1.19 -4.24,-2.29 -6.07,-3.85 4.74,2.17 9.64,3.93 14.55,5.67 0,1.22 -2.77,-0.83 -3.74,-0.92 -2.09,-0.21 2.16,1.54 0.67,2.88 -1.34,2.92 -4.74,3.65 -6.92,5.72 -1.72,2.38 -4.8,1.54 -5.54,-1.19 C 25.95,18.75 27.37,14 25.86,9.676 25.66,8.767 25.97,5.621 24.85,6.28 24.03,10 23.93,13.84 23.1,17.57 c -0.41,2.37 -0.48,4.87 -1.37,7.11 -1.54,2.23 -4.4,0.51 -5.9,-0.88 -1.9,-2.22 -4.84,-3.36 -6.314,-5.96 -1.938,-2.41 -5.186,1.3 -1.953,2.39 5.747,4.24 9.397,10.97 15.937,14.19 -0.43,-1.23 1.94,-4.28 1.71,-1.49 -1.26,2.32 1.76,4.34 2.92,1.6 1.91,-2.18 3.73,-4.46 6.04,-6.24 3.13,-2.96 5.81,-6.46 9.47,-8.81 -2.12,3.15 -5.57,5.16 -7.61,8.35 3.24,-0 -0.24,3.35 -1.02,4.64 -1.23,1.83 -5.33,4.04 -2.8,6.4 2.46,-0 4.23,-3.25 7.05,-2.49 2.51,1.03 -1.17,3.21 -2.29,4.04 -1.81,1.4 0.22,2.25 1.25,0.81 1.2,-1.04 3.28,-4.15 4.27,-3.76 -0.86,2.31 -5.04,5.05 -5.12,5.99 3.54,-1.65 5.66,-5.03 7.68,-8.2 0.88,-1.19 1.66,-0.98 0.76,0.47 -3.76,9.44 -14.84,14.52 -24.59,13 z m 13.83,-3.89 c -0.61,-0.82 -0.49,0.92 0,0 z m -1.17,-1.17 c -1.55,-0.83 -1.12,1.59 0,0 z m -21.26,-0.4 c -0.76,-2.25 -1.23,0.2 0,0 z m 1.2,-1.28 c -0.73,-0.59 0,0.91 0,0 z m 12.13,-0.78 c 1.15,-0.47 2.65,-4.01 1.13,-1.3 -1.5,2.54 -4.92,-0.73 -5.39,-1.52 0.98,1.27 2.27,3.91 4.26,2.82 z M 12.07,40.73 c -0.18,-1.34 -0.26,0.98 0,0 z m -0.86,-0.56 c -0.19,-2.57 -2.449,0.16 0,0 z m 13.97,-0.56 c 0.98,-0.7 3.98,-3.8 1.42,-1.9 -0.76,0.3 -4.27,1.91 -1.42,1.9 z m -7.49,-2.48 c -3.06,-2.2 -5.04,-5.64 -6,-9.23 0.81,-2.49 -1.51,-4.66 -3.699,-5.27 -2.472,0.99 0.194,3.98 0.442,5.7 1.23,3.6 3.207,7.55 7.107,8.77 0.48,0.19 2.91,1.64 2.15,0 z m 12.75,-1.36 c -0.66,-0.57 0.23,1.08 0,0 z m -5.97,-0.9 c -0.49,-0.89 -0.1,0.87 0,0 z M 18.6,34.52 c -0.13,-1.94 -1.85,0 0,0 z M 36.68,28.6 c -0.93,0.1 0.44,0.93 0,0 z m -23.15,0.29 c -0,-1.52 -1.33,0.25 0,0 z m 17.66,-4.42 c 3.42,-0.43 0.97,-5.85 -1.68,-4.6 -1.09,1.1 -0.15,5.52 1.58,4.63 l 0.1,-0.1 0,0 z m -12.21,-1.4 c 2.31,-1.76 -1,-5.2 -3.03,-3.41 1.08,-2.65 5.57,-4.03 5.06,-7.01 -1.09,-0.62 -4.5,0.58 -1.81,-0.85 1.11,-0.27 4.58,-2.537 1.64,-2.453 -2.64,0.513 -5.1,1.733 -7.59,2.723 -1.59,0.38 -2.77,3.01 -0.31,1.95 2.19,0.1 1.38,2.72 -0.51,2.31 -2.836,1.69 0.33,4.96 2.31,5.9 0.9,0.62 3.85,2.32 4.24,0.84 z m -4.76,-2.04 c -1.61,-1.18 1.07,-0.28 0,0 z M 13,18.07 c 0.25,-1.68 0.4,0.9 0,0 z M 7.213,16.16 C 10.69,11.91 14.52,7.164 20.19,5.985 22.56,5.704 20.26,3.895 19.07,5.109 14.36,6.41 10.34,9.545 7.515,13.48 7.019,14.12 5.554,15.93 7.213,16.16 Z M 22.88,13.87 c 1.53,-1.74 -0.97,-1.81 -0.67,-0.15 0.15,0.22 0.45,0.26 0.67,0.15 z m -12.35,0 c -0.607,-0.82 -0.5,0.92 0,0 z M 35.4,42.36 c 0.44,-1.54 1.54,0.86 0,0 z M 22.87,33.29 c -0.58,-1.38 1,-0.22 0,0 z M 37.03,18.17 c 0.11,-1.22 0.77,1.21 0,0 z M 27.49,4.275 c -1.48,-1.584 3.26,0.813 0.39,0.08 -0.13,-0.03 -0.26,-0.05 -0.39,-0.08 z"/>
<path style="fill:#4d2a07" d="M 21.88,48.73 C 14.06,47.8 6.926,42.63 3.745,35.41 2.219,32.26 1.454,28.79 1.605,25.3 c -0.1,-2.76 0.666,-5.47 1.531,-8.07 1.436,-2.08 -0.269,2.2 -0.51,2.93 -0.51,1.73 -0.449,3.58 -0.299,5.43 0.1,2.9 0.653,5.85 1.886,8.48 0.823,1.93 2.142,3.61 3.31,5.34 2.224,2.49 4.827,4.64 7.867,6.05 2.1,0.78 3.92,1.73 6.21,1.8 3.32,0.26 6.76,0.46 9.94,-0.74 4.41,-1.3 8.22,-4.17 11.34,-7.47 0.76,-1.17 2.01,-2.8 2.61,-3.67 -0.51,1.91 -1.7,3.59 -2.89,5.17 -4.17,5.43 -11.03,8.38 -17.81,8.31 -0.97,0 -1.95,0 -2.91,-0.13 z M 20.07,46.44 C 13.72,44.87 8.266,40.28 5.648,34.28 4.992,33.42 4.559,31.05 5.549,33.19 8.401,39.79 14.78,45.09 22.09,45.63 24.02,45.16 20.27,44.84 19.76,44.43 12.99,42.41 7.466,36.47 6.272,29.47 c 0.289,-1.2 0.736,1.93 1.502,2.13 0.511,0.94 0.676,2.25 1.99,2.12 0.125,1.39 1.306,-0.14 1.306,1.15 2.22,1.76 4.17,4.03 6.98,4.9 0.93,0.51 3.74,1.36 2.06,-0.49 -0.95,-0.32 -2.66,-2.63 -0.8,-0.93 0.54,-0.16 -2.03,-2.57 -2.44,-3.63 -1.7,-2.49 -3.82,-4.68 -5.44,-7.22 -0.3,-3.12 4.11,2.55 2.22,-0.3 C 12,25.75 10.27,24.59 9.129,22.69 7.751,21.14 5.974,19.87 5,18.02 6.623,19 8.001,20.78 9.491,22.11 14.65,27.15 19.67,32.34 24.94,37.27 31.03,31.62 36.71,25.52 42.87,19.95 c -0.62,1.25 -3.14,3.41 -4.54,4.92 -1.52,1.58 -3.24,3.09 -4.29,5.03 1.45,-0.28 3.38,-3.9 4.05,-2.77 -2.05,1.46 -3.46,3.68 -5.23,5.46 -2.51,2.69 -4.85,5.53 -7.29,8.27 -1.81,0.84 -2.99,-2.58 -4.42,-3.59 -2.85,-3.2 -5.7,-6.39 -8.62,-9.52 -2.01,-1.16 1.92,2.6 2.46,3.35 0.47,0.75 2.65,2.33 1.59,2.41 1.8,0.69 2.87,2.72 4.22,4.09 1.51,1.62 2.69,3.7 4.61,4.85 2.1,-3.09 4.58,-6.04 7.22,-8.74 0.43,-0.3 1.57,-1.58 1.17,-0.42 -1.22,1.5 -2.22,3.24 -3.44,4.77 -1.36,1.32 -2.18,3.7 0.58,2.32 2.08,-0.49 3.43,-1.57 5.07,-2.39 0.96,0.73 1.36,-0.89 2.01,0.75 0.79,-0.7 2.31,-1.93 0.83,-0.16 -2.71,3.55 -6.97,5.47 -11.22,6.47 -2.03,0.9 1.74,0.56 2.46,0.25 3.28,-0.68 6.32,-2.25 8.77,-4.53 1.08,-0.78 2.01,-2.11 3,-2.74 -1.55,2.57 -3.99,4.54 -6.48,6.16 -2.12,0.98 -4.2,2.17 -6.6,2.42 -2.89,0.48 -5.89,0.87 -8.71,-0.17 z m 7.21,-8.53 c 0.76,-0.93 2.66,-2.44 2.56,-3.23 -1.61,0.35 -2.5,1.31 -2.97,2.85 -0.99,0.99 -4.85,0.49 -2.42,2.44 0.92,0.46 2.06,-1.63 2.83,-2.06 z m 9.05,0.72 c -1.6,-0.67 0.6,1.24 0,0 z M 22.26,36.31 c -1.17,-0.24 -0.36,0.57 0,0 z m -0.99,-0.75 c -0.87,-0.93 -1.18,0.49 0,0 z M 33.93,30.6 c -0.21,-0.95 -0.66,0.86 0,0 z m -16.26,8 c 0.4,-0.55 0.96,0.85 0,0 z m 0,-1.76 c -0.3,-0.94 1.29,0.91 0.18,0.31 l -0.18,-0.31 z m 16.29,-4.56 c 1.13,-1.55 2.5,-3.03 3.88,-4.42 -1.02,1.48 -2.26,3.75 -4.02,4.56 l 0.12,-0.14 0,0 z M 4.667,31.75 c -0.473,-0.79 -0.481,-2.9 0.05,-0.97 0.05,0.1 0.43,1.63 -0.05,0.97 z M 4.035,29.13 c -0.24,-1.72 0.732,1.27 -0,0 l 0,0 z M 19.93,26.51 c -3.23,-2.19 -6.16,-4.8 -9.32,-7.08 1.61,0.18 3.31,2.09 4.88,3.04 1.42,1.15 4.08,3.52 3.77,0.1 0,-1.77 0.8,-3.62 0.79,-5.01 -0.73,-0.14 -2.33,0.75 -0.89,-0.52 1.02,-0.49 2.51,-2.06 0.49,-0.74 -0.87,0.73 -1.75,0.86 -0.48,-0.11 1.09,-1.61 4.37,-0.94 3.88,-3.4 0.57,-3.059 -3.43,-0.57 -4.98,-0.27 1.24,-1.18 3.53,-1.46 5.24,-2.1 0.35,-0.661 0.96,-3.988 0.1,-3.297 -0,1.036 -0.86,1.958 -0.8,0.41 -0.19,-1.419 -2.44,0.867 -3.71,0.293 -1.63,0.465 -1.93,0.661 -3.94,1.36 -0.59,0.336 -2.81,1.514 -1.26,0.121 2.5,-1.62 5.34,-2.882 8.28,-3.356 0.96,0 1.51,-0.507 1.72,0.349 0.2,-1.785 1.59,-3.79 2.09,-0.867 0.17,0.745 0.26,2.424 0.28,2.783 -0.33,-1.239 -0.17,-2.795 -1.1,-3.735 -0.95,1.664 -0.56,4.056 -0.99,5.989 -0.64,3.66 -0.81,7.38 -1.58,11.02 -0.6,1.32 0,6.04 -2.42,5.03 z m 1.09,-1.18 c 0,-0.75 1.01,-3.66 0.1,-3.28 0.17,0.65 -1.01,3.77 -0.1,3.28 z m 0.69,-4.88 c 0.34,-1.18 -1.3,1.78 -0.15,0.47 l 0.14,-0.47 0,0 z M 20.87,7.133 c -0.18,-0.898 -0.66,0.852 0,0 z M 28.49,26.5 c -0.77,-2.55 -0.96,-5.24 -1.5,-7.85 -0.26,-2.5 -0.63,-5.01 -0.63,-7.52 0.6,1.59 -0.11,4.06 2.33,3.93 1.63,0.74 3.84,2.19 4.41,3.56 -0.85,-0.43 -2.94,-2.79 -3.13,-2.12 1.45,1.26 3.14,2.88 4.26,4.1 0.33,0.65 0.46,1.4 -0.11,0.97 1.37,1.17 2.73,-1.5 4.05,-1.88 2.55,-1.22 -0.73,1.05 -1.36,1.56 -2.42,2.06 -4.92,4.08 -7.65,5.72 -0.19,-0.1 -0.74,-0.15 -0.67,-0.47 z m 0.4,-2.43 c -0.11,-1.2 -0.94,-1.54 -0.46,-0.1 0.11,1.06 1,2.13 0.46,0.1 z m 2.96,0 c 2.88,-0.99 1.51,-3.73 -0.27,-5.07 -0.79,-0.81 -3.54,-2.75 -2.81,-0.27 0.27,2.18 0.47,4.43 1.16,6.52 0.7,-0.27 1.32,-0.79 1.92,-1.18 z m -3.52,-3.35 c -0.22,-0.91 -0.7,-3.28 -0.53,-0.9 -0.22,0.42 0.57,2.4 0.53,0.9 z m 11.5,-2.43 c 1.88,-1.55 0.44,0.96 -0.27,0.29 l 0.25,-0.29 0,0 z M 5.392,17.26 c 0.267,-0.38 3.205,-1.43 2.787,-1.05 0.424,0.67 -1.522,0.95 -2.443,1.23 l -0.137,-0 -0.207,-0.16 0,0 z m 3.747,0 c 0.248,-1.26 1.401,0.6 0,-0 l 0,0 z m 30.791,0 c -0.86,-0.9 2.53,0.83 0,0 z M 10.87,16.5 c 0.97,-0.83 3.36,-1.14 3.51,-2.02 -1.31,0.83 -4.25,0.8 -4.797,1.48 0.437,0.7 -1.265,-0.65 0.328,-0.67 1.539,0 4.219,-2.29 5.079,-0.83 -0.28,1.56 -3.6,1.82 -4.33,2.28 l 0.27,-0.24 -0.1,0 z m 26.8,-0.31 c -0.85,-0.23 -3.49,-1.08 -3.22,-1.58 1.38,0.38 3.89,1.15 4.29,1.96 -0.37,-0.1 -0.73,-0.22 -1.07,-0.38 z M 3.816,15.6 c 0.218,-1.18 1.371,-2.49 0.71,-0.47 0.01,0.48 -1.041,1.72 -0.71,0.47 z M 35,14.07 c 0.2,-0.96 0.7,0.87 0,0 z m -2.43,-0.91 c -1.47,-1.19 -4.54,-1.42 -5.41,-2.38 2.16,0.22 4.63,1.24 6.09,2.7 -0.26,0.16 -0.47,-0.35 -0.68,-0.32 z M 5.437,12.33 c 1.405,-1.53 0.146,1.6 0,0 z M 6.491,10.8 C 8.819,7.704 11.75,4.917 15.4,3.465 21.21,0.6746 28.25,0.8133 34.11,3.328 35.15,3.608 36.1,4.659 34.42,3.872 33.21,3.444 30.78,2.214 30.72,3.006 27.47,2.61 24.15,2.691 20.89,2.92 18.88,3.505 16.64,3.77 14.91,4.908 11.74,6.543 8.924,8.845 6.611,11.56 6.003,11.97 6.359,10.97 6.491,10.8 Z m 2.776,-0.3 c 0.833,-0.896 0.783,0.36 0,0 z M 10.49,9.475 c 3.27,-3.328 7.88,-5.228 12.49,-5.724 1.45,0.347 -2.32,0.851 -2.97,0.986 -2.75,0.547 -5.28,1.798 -7.52,3.465 -0.84,0.06 -1.34,1.522 -2,1.273 z m 8.58,-1.184 c 1.37,-0.24 0.19,0.436 0,0 z m 21.4,-0.624 c -0.62,-0.933 1.29,0.79 0,0 z M 39.11,6.4 c -0.61,-1.188 1.37,1.426 0,0 z M 26.6,6.051 c 0.58,-0.58 0.63,0.926 0,0 z M 37.77,5.517 c -1.42,-1.375 2,1.227 0.24,0.2 l -0.24,-0.2 0,0 z M 36.33,4.733 c 0.14,-0.927 1.14,0.944 0,0 z" />
</svg>
